<?xml version="1.0" encoding="utf-8"?>
<!-- Generator: Adobe Illustrator 22.1.0, SVG Export Plug-In . SVG Version: 6.00 Build 0)  -->
<svg version="1.1" id="Layer_1" xmlns="http://www.w3.org/2000/svg" xmlns:xlink="http://www.w3.org/1999/xlink" x="0px" y="0px"
	 viewBox="0 0 60 60" style="enable-background:new 0 0 60 60;" xml:space="preserve">
<style type="text/css">
	.st0{fill:#FFFFFF;}
</style>
<g>
	<g>
		<path class="st0" d="M38,36c1.1,0,2,0.9,2,2s-0.9,2-2,2s-2-0.9-2-2S36.9,36,38,36 M38,26c-6.6,0-12,5.4-12,12s5.4,12,12,12
			s12-5.4,12-12S44.6,26,38,26L38,26z"/>
	</g>
	<g>
		<path class="st0" d="M38,16c-12.2,0-22,9.8-22,22s9.8,22,22,22s22-9.8,22-22S50.2,16,38,16L38,16z M28.6,25.1
			c1.9-1.4,4-2.3,6.4-2.8v-2.8h5v2.6c2.7,0.3,5.3,1.4,7.4,2.9l2.3-2.3l3.5,3.5l-2.3,2.3c1.6,2.1,2.6,4.7,2.9,7.4h3.6v5h-3.8
			c-0.4,2.4-1.4,4.5-2.8,6.4l2.3,2.3l-3.5,3.5l-2.3-2.3c-2.1,1.6-4.7,2.6-7.4,2.9v3.6h-5v-3.8c-2.6-0.5-5-1.6-7-3.2l-2.8,2.8
			l-3.5-3.5l2.9-2.9c-1.1-1.7-2-3.7-2.4-5.8h-3.8v-5h3.6c0.3-2.7,1.4-5.3,2.9-7.4l-2.3-2.3l3.5-3.5L28.6,25.1L28.6,25.1z"/>
	</g>
</g>
<g>
	<g>
		<path class="st0" d="M12.5,11.7c0.4,0,0.8,0.4,0.8,0.8s-0.4,0.8-0.8,0.8s-0.8-0.4-0.8-0.8S12.1,11.7,12.5,11.7 M12.5,5.7
			c-3.8,0-6.8,3.1-6.8,6.8s3.1,6.8,6.8,6.8s6.8-3.1,6.8-6.8S16.3,5.7,12.5,5.7L12.5,5.7z"/>
	</g>
	<g>
		<path class="st0" d="M12.5,0C5.6,0,0,5.6,0,12.5S5.6,25,12.5,25S25,19.4,25,12.5S19.4,0,12.5,0L12.5,0z M7.2,5.2
			c1.1-0.8,2.3-1.3,3.6-1.6V2h2.8v1.5c1.6,0.2,3,0.8,4.2,1.7l1.3-1.3l2,2l-1.3,1.3c0.9,1.2,1.5,2.6,1.7,4.2h2.1v2.8h-2.2
			c-0.3,1.3-0.8,2.6-1.6,3.6l1.3,1.3l-2,2l-1.3-1.3c-1.2,0.9-2.6,1.5-4.2,1.7v2.1h-2.8v-2.2c-1.5-0.3-2.8-0.9-4-1.8l-1.6,1.6l-2-2
			l1.7-1.7c-0.7-1-1.1-2.1-1.3-3.3H1.4v-2.8h2.1c0.2-1.6,0.8-3,1.7-4.2L3.8,5.8l2-2L7.2,5.2L7.2,5.2z"/>
	</g>
</g>
</svg>
