<?xml version="1.0" encoding="utf-8"?>
<!-- Generator: Adobe Illustrator 22.1.0, SVG Export Plug-In . SVG Version: 6.00 Build 0)  -->
<svg version="1.1" xmlns="http://www.w3.org/2000/svg" xmlns:xlink="http://www.w3.org/1999/xlink" x="0px" y="0px"
	 viewBox="0 0 141.7 165.6" style="enable-background:new 0 0 141.7 165.6;" xml:space="preserve">
<style type="text/css">
	.st0{display:none;}
	.st1{display:inline;}
	.st2{fill:#FFFFFF;}
	.st3{fill:none;stroke:#FFFFFF;stroke-width:40;stroke-miterlimit:10;}
	.st4{fill:none;stroke:#FFFFFF;stroke-width:14;stroke-miterlimit:10;}
	.st5{opacity:0.3;}
	.st6{opacity:0.3;fill:none;stroke:#FFFFFF;stroke-width:40;stroke-miterlimit:10;enable-background:new    ;}
	.st7{opacity:0.3;fill:none;stroke:#FFFFFF;stroke-width:14;stroke-miterlimit:10;enable-background:new    ;}
	.st8{fill:none;stroke:#FFFFFF;stroke-width:6;stroke-miterlimit:10;}
	.st9{fill:none;stroke:#FFFFFF;stroke-width:3;stroke-miterlimit:10;}
	.st10{fill:#FFFFFF;stroke:#FFFFFF;stroke-width:6;stroke-miterlimit:10;}
</style>
<g id="Layer_1" class="st0">
	<g id="Capa_1">
		<g class="st1">
			<g>
				<g>
					<path d="M510.4-119.9c-1.1-2.6-2.6-5-4.6-7l-64-64c-8.3-8.3-21.8-8.3-30.2,0c-8.3,8.3-8.3,21.8,0,30.2l27.6,27.6H320
						c-11.8,0-21.3,9.6-21.3,21.3s9.5,21.4,21.3,21.4h119.2l-27.6,27.6c-8.3,8.3-8.3,21.8,0,30.2c4.2,4.2,9.6,6.3,15.1,6.3
						s10.9-2.1,15.1-6.3l64-64c2-2,3.5-4.3,4.6-7C512.5-108.8,512.5-114.7,510.4-119.9z"/>
					<path d="M362.7-47.7c-11.8,0-21.3,9.6-21.3,21.3V80.3H256v-341.4c0-9.4-6.2-17.7-15.2-20.4l-74.1-22.2h174.6V-197
						c0,11.8,9.5,21.3,21.3,21.3s21.3-9.6,21.3-21.3v-128c0.1-11.8-9.4-21.4-21.2-21.4H21.3c-0.8,0-1.5,0.3-2.2,0.4
						c-1,0.1-1.9,0.3-2.9,0.5c-2.2,0.6-4.2,1.5-6.1,2.7c-0.5,0.3-1,0.3-1.5,0.7c-0.2,0.1-0.2,0.3-0.4,0.4c-2.3,1.8-4.3,4.1-5.7,6.7
						c-0.3,0.6-0.4,1.2-0.6,1.8c-0.7,1.6-1.4,3.2-1.7,5c-0.1,0.6,0.1,1.2,0.1,1.9c0,0.4-0.3,0.8-0.3,1.2v426.7
						c0,10.2,7.2,18.9,17.2,20.9l213.3,42.7c1.4,0.3,2.8,0.4,4.2,0.4c4.9,0,9.7-1.7,13.5-4.8c4.9-4.1,7.8-10.1,7.8-16.5V123h106.7
						c11.8,0,21.3-9.6,21.3-21.3V-26.4C384-38.2,374.5-47.7,362.7-47.7z"/>
				</g>
			</g>
		</g>
	</g>
	<g id="Layer_2_1_" class="st1">
		<g>
			<path class="st2" d="M406.9-169.4c6.1,0.7,11.7,1.8,17.1,3.1c1.4,0.3,2.7,0.6,4,1l4,1l3.9,1.1l1.9,0.6c0.6,0.2,1.3,0.3,1.8,0.6
				c1.1,0.5,1.3,1.8,1.9,2.8c0.3,0.5,0.7,0.9,1,1.3l1.1,1.3l4.3,5.1l8.5,10.2l34.1,40.9l10.9,13.1l-11.3,12.9L456-35.3l-8.5,9.8
				l-4.3,4.9l-1.1,1.2c-0.4,0.4-0.7,0.8-0.9,1.3c-0.2,0.5-0.5,1-0.9,1.4s-1,0.6-1.6,0.8c-2.5,0.7-5,1.4-7.6,2s-5.1,1.3-7.8,1.8
				C418-11,412.6-10,406.8-9.3c-0.1-5.9,0.1-11.4,0.5-16.8c0.2-2.7,0.5-5.3,0.7-8c0.3-2.6,0.6-5.2,0.9-7.8c0.1-0.7,0.2-1.3,0.5-1.7
				c0.3-0.4,0.8-0.7,1.3-1s0.9-0.7,1.2-1.1l1.1-1.2l4.3-4.9l8.5-9.8l34.1-39.1l-0.3,25.9l-34.1-40.9l-8.5-10.2l-4.3-5.1l-1.1-1.3
				c-0.4-0.4-0.7-0.9-1.1-1.2c-0.9-0.7-2-1.2-2.4-2.4c-0.2-0.6-0.2-1.3-0.3-1.9l-0.2-2l-0.4-4l-0.3-4.1c-0.1-1.4-0.2-2.7-0.2-4.1
				C406.5-157.6,406.4-163.3,406.9-169.4z"/>
		</g>
		<line class="st3" x1="316" y1="-89.4" x2="475" y2="-87.6"/>
		<polygon class="st4" points="11,-337.9 11,107.6 223,151.6 223,-286.4 		"/>
		<polyline class="st4" points="13,-336.4 331.9,-336.4 331.9,-8.4 365.5,13.6 365.5,126.6 284.4,126.6 		"/>
		<polyline class="st4" points="130.1,-309 280,-309 280,140.6 228,136.6 		"/>
		<path class="st4" d="M419.5-350.4"/>
		<g class="st5">
			<path class="st2" d="M414.9-164.4c6.1,0.7,11.7,1.8,17.1,3.1c1.4,0.3,2.7,0.6,4,1l4,1l3.9,1.1l1.9,0.6c0.6,0.2,1.3,0.3,1.8,0.6
				c1.1,0.5,1.3,1.8,1.9,2.8c0.3,0.5,0.7,0.9,1,1.3l1.1,1.3l4.3,5.1l8.5,10.2l34.1,40.9l10.9,13.1l-11.3,12.9L464-30.3l-8.5,9.8
				l-4.3,4.9l-1.1,1.2c-0.4,0.4-0.7,0.8-0.9,1.3c-0.2,0.5-0.5,1-0.9,1.4s-1,0.6-1.6,0.8c-2.5,0.7-5,1.4-7.6,2s-5.1,1.3-7.8,1.8
				C426-6,420.6-5,414.8-4.3c-0.1-5.9,0.1-11.4,0.5-16.8c0.2-2.7,0.5-5.3,0.7-8c0.3-2.6,0.6-5.2,0.9-7.8c0.1-0.7,0.2-1.3,0.5-1.7
				c0.3-0.4,0.8-0.7,1.3-1s0.9-0.7,1.2-1.1l1.1-1.2l4.3-4.9l8.5-9.8l34.1-39.1l-0.3,25.9l-34.1-40.9l-8.5-10.2l-4.3-5.1l-1.1-1.3
				c-0.4-0.4-0.7-0.9-1.1-1.2c-0.9-0.7-2-1.2-2.4-2.4c-0.2-0.6-0.2-1.3-0.3-1.9l-0.2-2l-0.4-4l-0.3-4.1c-0.1-1.4-0.2-2.7-0.2-4.1
				C414.5-152.6,414.4-158.3,414.9-164.4z"/>
		</g>
		<line class="st6" x1="347" y1="-84.4" x2="480" y2="-82.6"/>
		<polygon class="st7" points="19,-332.9 19,112.6 231,156.6 231,-281.4 		"/>
		<polyline class="st7" points="36,-331.4 339.9,-331.4 339.9,-3.4 373.5,18.6 373.5,131.6 295.4,131.6 		"/>
		<polyline class="st7" points="146.1,-304 288,-304 288,145.6 238,141.6 		"/>
		<path class="st7" d="M427.5-345.4"/>
	</g>
</g>
<g id="Layer_2">
	<g>
		<path class="st2" d="M75,6.6l0.2,133.5c0,0.1-0.1,0.4-0.3,0.5l-68.7,17L6,24.2c0-0.1,0.1-0.4,0.3-0.5L75,6.6 M77.3,0
			c-0.3,0-0.7,0-1,0.1L4.7,17.9C2.1,18.5,0,21.3,0,24.2l0.2,135.9c0,2.5,1.6,4.2,3.7,4.2c0.3,0,0.6,0,1-0.1l71.6-17.8
			c2.6-0.6,4.7-3.4,4.7-6.3L81,4.3C81,1.7,79.4,0,77.3,0L77.3,0z"/>
	</g>
	<path class="st8" d="M79.5,17.1l30.1-0.1c3.5,0,7.4,2.6,7.4,5.8l0,29.9c0,2.9-3.6,5.2-6.7,5.2l-0.7,0l0.2,98.8
		c0,1.4-1.2,3.5-2.7,3.5l-92.6,2.2l-9.5-1"/>
	<polyline class="st9" points="93,25.9 98.6,25.8 98.8,152.1 38.3,154.3 	"/>
	<polyline class="st9" points="77,24 91.6,22.8 91.8,148.2 47.3,150.2 	"/>
	<path class="st10" d="M136.6,92.8l-14.4-15.1c-0.7-0.4-1.5,0.3-1.5,1.3v30.2c0,1,0.8,1.7,1.5,1.3l14.4-15.1
		C137.6,95,137.6,93.3,136.6,92.8z"/>
	<rect x="93.5" y="88.6" class="st10" width="28.5" height="11"/>
</g>
</svg>
