<?xml version="1.0" encoding="utf-8"?>
<!-- Generator: Adobe Illustrator 22.1.0, SVG Export Plug-In . SVG Version: 6.00 Build 0)  -->
<svg version="1.1" xmlns="http://www.w3.org/2000/svg" xmlns:xlink="http://www.w3.org/1999/xlink" x="0px" y="0px"
	 viewBox="0 0 180 120" style="enable-background:new 0 0 180 120;" xml:space="preserve">
<style type="text/css">
	.st0{display:none;}
	.st1{display:inline;}
	.st2{fill:#FFFFFF;}
	.st3{fill:none;stroke:#FFFFFF;stroke-width:4;stroke-miterlimit:10;}
	.st4{display:inline;fill:none;stroke:#FFFFFF;stroke-width:4;stroke-miterlimit:10;}
	.st5{display:inline;opacity:0.3;}
	.st6{display:inline;opacity:0.3;fill:none;stroke:#FFFFFF;stroke-width:4;stroke-miterlimit:10;}
	.st7{display:inline;fill-rule:evenodd;clip-rule:evenodd;fill:none;stroke:#FFFFFF;stroke-width:4;stroke-miterlimit:10;}
	
		.st8{display:inline;opacity:0.3;fill-rule:evenodd;clip-rule:evenodd;fill:none;stroke:#FFFFFF;stroke-width:4;stroke-miterlimit:10;}
	.st9{display:inline;fill-rule:evenodd;clip-rule:evenodd;fill:none;stroke:#000000;stroke-width:4;stroke-miterlimit:10;}
	.st10{display:inline;fill:none;stroke:#000000;stroke-width:4;stroke-miterlimit:10;}
	
		.st11{display:inline;opacity:0.3;fill-rule:evenodd;clip-rule:evenodd;fill:none;stroke:#000000;stroke-width:4;stroke-miterlimit:10;}
	.st12{display:inline;opacity:0.3;fill:none;stroke:#000000;stroke-width:4;stroke-miterlimit:10;}
	.st13{display:inline;fill:none;stroke:#000000;stroke-width:6;stroke-miterlimit:10;}
	.st14{display:inline;fill:none;stroke:#000000;stroke-width:3;stroke-miterlimit:10;}
	.st15{display:inline;fill:none;stroke:#000000;stroke-width:7;stroke-miterlimit:10;}
	.st16{fill:none;stroke:#FFFFFF;stroke-width:7;stroke-miterlimit:10;}
	.st17{display:inline;fill:none;stroke:#FFFFFF;stroke-width:6;stroke-miterlimit:10;}
	.st18{display:inline;fill:none;stroke:#FFFFFF;stroke-width:5;stroke-miterlimit:10;}
	.st19{display:inline;fill:none;stroke:#FFFFFF;stroke-width:8;stroke-miterlimit:10;}
	.st20{display:inline;fill:none;stroke:#000000;stroke-width:8;stroke-miterlimit:10;}
	.st21{fill:#1D1D1B;}
</style>
<g id="open_x5F_image" class="st0">
	<g class="st1">
		<path class="st2" d="M171.9,9v92.8H6V9H171.9 M175.6,5H2.3C2.1,5,2,5.1,2,5.3v100.2c0,0.2,0.1,0.3,0.3,0.3h173.2
			c0.2,0,0.3-0.1,0.3-0.3V5.3C175.9,5.1,175.7,5,175.6,5L175.6,5z"/>
	</g>
	<g class="st1">
		<path class="st2" d="M64.6,18.2c10.4,0,18.8,8.9,18.8,19.8S75,57.8,64.6,57.8S45.8,48.9,45.8,38S54.3,18.2,64.6,18.2 M64.6,14.2
			C52,14.2,41.8,24.8,41.8,38S52,61.8,64.6,61.8S87.5,51.2,87.5,38S77.2,14.2,64.6,14.2L64.6,14.2z"/>
	</g>
	<g class="st1">
		<line class="st3" x1="36.7" y1="37.5" x2="17.6" y2="37.5"/>
	</g>
	<line class="st4" x1="92.4" y1="37.5" x2="111.5" y2="37.5"/>
	<line class="st4" x1="65.2" y1="65.9" x2="65.2" y2="81.4"/>
	<line class="st4" x1="85" y1="57" x2="98.4" y2="70.4"/>
	<line class="st4" x1="45.4" y1="58.1" x2="32.6" y2="71.1"/>
	<line class="st4" x1="45.1" y1="18.1" x2="38.9" y2="11.6"/>
	<line class="st4" x1="84" y1="19.3" x2="91.6" y2="11.5"/>
	<path class="st4" d="M4.7,86.6c10.8-4.5,22.2-6,28.3-6c16.5-0.1,25.6,6.6,54.4,15.3c8.6,2.6,16.2,7.1,20.8,8.2"/>
	<path class="st4" d="M72.9,91c9.2-5.9,30.1-15.5,49.6-18.1c16.2-2.2,29.7,0.1,35.2,1.1c5.7,1,13.1,3.9,16.5,4.9"/>
	<g class="st5">
		<path class="st2" d="M174,11.2V104H8.1V11.2H174 M177.7,7.2H4.4c-0.2,0-0.3,0.1-0.3,0.3v100.2c0,0.2,0.1,0.3,0.3,0.3h173.2
			c0.2,0,0.3-0.1,0.3-0.3V7.5C178,7.3,177.9,7.2,177.7,7.2L177.7,7.2z"/>
	</g>
	<g class="st5">
		<path class="st2" d="M67.3,19.8c10.4,0,18.8,8.9,18.8,19.8s-8.4,19.8-18.8,19.8s-18.8-8.9-18.8-19.8S56.9,19.8,67.3,19.8
			 M67.3,15.8c-12.6,0-22.8,10.7-22.8,23.8s10.2,23.8,22.8,23.8s22.8-10.7,22.8-23.8S79.9,15.8,67.3,15.8L67.3,15.8z"/>
	</g>
	<g class="st5">
		<line class="st3" x1="39.2" y1="40" x2="20.1" y2="40"/>
	</g>
	<line class="st6" x1="94.9" y1="40" x2="114" y2="40"/>
	<line class="st6" x1="67.7" y1="68.5" x2="67.7" y2="84"/>
	<line class="st6" x1="87.5" y1="59.6" x2="100.9" y2="73"/>
	<line class="st6" x1="47.9" y1="60.7" x2="35.1" y2="73.7"/>
	<line class="st6" x1="47.6" y1="20.6" x2="41.4" y2="14.2"/>
	<line class="st6" x1="86.5" y1="21.9" x2="94.1" y2="14.1"/>
	<path class="st6" d="M6.8,88.8c10.8-4.5,22.2-6,28.3-6c16.5-0.1,25.6,6.6,54.4,15.3c8.6,2.6,14.1,4.9,18.7,6"/>
	<path class="st6" d="M77.2,91c9.2-5.9,27.9-13.3,47.5-15.9c16.2-2.2,29.7,0.1,35.2,1.1c5.7,1,10.9,1.7,14.4,2.7"/>
</g>
<g id="Layer_2" class="st0">
	<rect x="6" y="34" class="st7" width="165" height="80"/>
	<polyline class="st7" points="11,34 11,8 52,8 57,13 162,13 162,34 	"/>
	<polyline class="st7" points="153,33 153,21 19,21 19,33 	"/>
	<rect x="8" y="37" class="st8" width="165" height="80"/>
	<polyline class="st8" points="13,36 13,10 54,10 59,15 164,15 164,36 	"/>
	<polyline class="st8" points="155,36 155,24 21,24 21,36 	"/>
</g>
<g id="Layer_3" class="st0">
	<g class="st1">
		<path d="M164,33v78.9H6V33H164 M167.7,29H2.3C2.1,29,2,29.1,2,29.3v86.3c0,0.2,0.1,0.3,0.3,0.3h165.4c0.2,0,0.3-0.1,0.3-0.3V29.3
			C168,29.1,167.9,29,167.7,29L167.7,29z"/>
	</g>
	<polyline class="st9" points="14,12 14,4 174,4 174,104.7 165,110 	"/>
	<polyline class="st9" points="11,20 11,13 163,13 163,29 	"/>
	<line class="st9" x1="159" y1="20" x2="5" y2="20"/>
	<path class="st9" d="M131-20"/>
	<line class="st10" x1="7" y1="20" x2="7" y2="32"/>
	<line class="st10" x1="157" y1="20" x2="157" y2="29"/>
	<g class="st5">
		<path d="M167,35v78.9H9V35H167 M170.7,31H5.3C5.1,31,5,31.1,5,31.3v86.3c0,0.2,0.1,0.3,0.3,0.3h165.4c0.2,0,0.3-0.1,0.3-0.3V31.3
			C171,31.1,170.9,31,170.7,31L170.7,31z"/>
	</g>
	<polyline class="st11" points="17,14 17,6 177,6 177,106.7 170,110 	"/>
	<polyline class="st11" points="14,22 14,15 166,15 166,31 	"/>
	<line class="st11" x1="162" y1="22" x2="8" y2="22"/>
	<line class="st12" x1="10" y1="24" x2="10" y2="31"/>
	<line class="st12" x1="160" y1="22" x2="160" y2="31"/>
</g>
<g id="OpenModel" class="st0">
	<g class="st1">
		<path d="M141.7,45L141.7,45c0.1,0,0.4,0.1,0.5,0.3l16.9,68.7H25.6c-0.1,0-0.4-0.1-0.5-0.3L8.1,45H141.7 M141.7,39H5.8
			c-2.9,0-4.8,2.1-4.2,4.8l17.6,71.6c0.6,2.6,3.4,4.7,6.3,4.7h135.9c2.9,0,4.7-2.1,4.1-4.7L148,43.7C147.4,41.1,144.5,39,141.7,39
			L141.7,39z"/>
	</g>
	<path class="st13" d="M18.7,40.5l0-30.1c0-3.5,2.6-7.4,5.9-7.4h29.9c2.9,0,5.2,3.6,5.2,6.7v0.7h98.8c1.4,0,3.5,1.2,3.5,2.7l2,92.6
		l-1.1,9.5"/>
	<polyline class="st14" points="27.5,27 27.3,21.5 153.7,21.5 155.7,81.9 	"/>
	<polyline class="st14" points="25.5,43 24.3,28.5 149.7,28.5 151.7,72.9 	"/>
</g>
<g id="Layer_9" class="st0">
	<path class="st15" d="M172.3,116.5H58.8c-4,0-7.3-3.2-7.3-7.3V41.8c0-4,3.2-7.3,7.3-7.3h110.5c4,0,7.3,3.2,7.3,7.3v70.5
		C176.5,114.6,174.6,116.5,172.3,116.5z"/>
	<path class="st1" d="M33,88h-8.3c-2.6,0-4.8-2.1-4.8-4.8V15.8c0-2.6,2.1-4.8,4.8-4.8h110.5c2.6,0,4.8,2.1,4.8,4.8V21h5v-5.3
		c0-5.4-4.4-9.8-9.8-9.8H24.8c-5.4,0-9.8,4.4-9.8,9.8v67.5c0,5.4,4.4,9.8,9.8,9.8H33V88z"/>
	<path class="st1" d="M53,98H37.8c-2.1,0-3.8-1.7-3.8-3.8V26.8c0-2.1,1.7-3.8,3.8-3.8h110.5c2.1,0,3.8,1.7,3.8,3.8V37h7V26.8
		c0-5.9-4.8-10.8-10.8-10.8H37.8C31.8,16,27,20.8,27,26.8v67.5c0,5.9,4.8,10.8,10.8,10.8H53V98z"/>
</g>
<g id="Layer_10">
	<path class="st16" d="M147.3,101.5H33.8c-4,0-7.3-3.2-7.3-7.3V26.8c0-4,3.2-7.3,7.3-7.3h110.5c4,0,7.3,3.2,7.3,7.3v70.5
		C151.5,99.6,149.6,101.5,147.3,101.5z"/>
	<g>
		<path class="st2" d="M158.5,58.3h11c0.5,0,0.7-0.8,0.4-1.4l-3.5-5.6c-0.3-0.5-0.1-1.4,0.4-1.4h4.8c0.1,0,0.3,0.1,0.4,0.2l6.9,11
			c0.2,0.3,0.2,0.8,0,1.1l-6.9,11c-0.1,0.2-0.2,0.2-0.4,0.2h-4.8c-0.5,0-0.7-0.8-0.4-1.4l3.5-5.6c0.3-0.5,0.1-1.4-0.4-1.4h-11
			c-0.3,0-0.5-0.4-0.5-0.8v-5.5C158,58.7,158.2,58.3,158.5,58.3z"/>
	</g>
	<g>
		<path class="st2" d="M19.5,59.3h-10c-0.4,0-0.6-0.8-0.3-1.4l3.1-5.6c0.3-0.5,0.1-1.4-0.3-1.4H7.7c-0.1,0-0.3,0.1-0.3,0.2l-6.2,11
			c-0.2,0.3-0.2,0.8,0,1.1l6.2,11c0.1,0.2,0.2,0.2,0.3,0.2H12c0.4,0,0.6-0.8,0.3-1.4l-3.1-5.6c-0.3-0.5-0.1-1.4,0.3-1.4h10
			c0.3,0,0.5-0.4,0.5-0.8v-5.5C20,59.7,19.8,59.3,19.5,59.3z"/>
	</g>
	<g>
		<path class="st2" d="M84.6,14.7l0-7.1c0-0.3-1-0.4-1.6-0.2l-6.4,2.3C76,9.8,75,9.6,75,9.3l0-3.1C75,6.1,75.1,6,75.3,6L88,1.5
			c0.4-0.1,0.9-0.1,1.3,0L102,5.9c0.2,0.1,0.3,0.2,0.3,0.2l0,3.1c0,0.3-1,0.5-1.6,0.3l-6.4-2.2c-0.6-0.2-1.6,0-1.6,0.3l0,7.1
			c0,0.2-0.4,0.3-0.9,0.3l-6.3,0C85,15,84.6,14.9,84.6,14.7z"/>
	</g>
	<g>
		<path class="st2" d="M85.6,106.3l0,6.8c0,0.3-1,0.4-1.6,0.2l-6.4-2.1c-0.6-0.2-1.6,0-1.6,0.2l0,3c0,0.1,0.1,0.2,0.3,0.2l12.8,4.2
			c0.4,0.1,0.9,0.1,1.3,0l12.7-4.3c0.2-0.1,0.3-0.1,0.3-0.2l0-3c0-0.3-1-0.4-1.6-0.2l-6.4,2.2c-0.6,0.2-1.6,0.1-1.6-0.2l0-6.8
			c0-0.2-0.4-0.3-0.9-0.3l-6.3,0C86,106,85.6,106.2,85.6,106.3z"/>
	</g>
</g>
<g id="ImportImage" class="st0">
	<path class="st17" d="M171,110H9c-3.3,0-6-2.7-6-6V14c0-3.3,2.7-6,6-6h162c3.3,0,6,2.7,6,6v90C177,107.3,174.3,110,171,110z"/>
	<ellipse class="st18" cx="46" cy="47" rx="22.3" ry="22.4"/>
	<line class="st18" x1="75.5" y1="47.6" x2="90.9" y2="47.6"/>
	<line class="st18" x1="45.5" y1="17.4" x2="45.5" y2="12.2"/>
	<line class="st18" x1="45.5" y1="76.7" x2="45.5" y2="91.1"/>
	<line class="st18" x1="16.5" y1="47.6" x2="7.1" y2="47.6"/>
	<line class="st18" x1="68.3" y1="69.4" x2="80.7" y2="81.9"/>
	<line class="st18" x1="68.3" y1="24.7" x2="79.6" y2="14.2"/>
	<line class="st18" x1="23.7" y1="24.7" x2="13.4" y2="14.2"/>
	<line class="st18" x1="23.7" y1="69.4" x2="11.3" y2="81.9"/>
	<path class="st18" d="M97.7,68l-29.3,42h68.2l-29.3-42C105,64.6,100.1,64.6,97.7,68z"/>
	<path class="st18" d="M153,46.9c-2.2-4.5-8.6-4.5-10.8,0l-30,60c-0.5,1-0.7,2.1-0.6,3.1h60.1c3,0,5.4-2.4,5.4-5.4V95L153,46.9z"/>
</g>
<g id="LegendDock" class="st0">
	<path class="st19" d="M49,89H22.5C20,89,18,87,18,84.5v-33c0-2.5,2-4.5,4.5-4.5H49c2.5,0,4.5,2,4.5,4.5v33C53.5,87,51.5,89,49,89z"
		/>
	<path class="st19" d="M88.9,50.1L70.3,86.4c-0.6,1.2,0.3,2.6,1.6,2.6h37.3c1.4,0,2.2-1.4,1.6-2.6L92.1,50.1
		C91.5,48.8,89.6,48.8,88.9,50.1z"/>
	<path class="st19" d="M158.5,89H132c-2.5,0-4.5-2-4.5-4.5v-33c0-2.5,2-4.5,4.5-4.5h26.5c2.5,0,4.5,2,4.5,4.5v33
		C163,87,161,89,158.5,89z"/>
	<line class="st19" x1="16" y1="68" x2="5" y2="68"/>
	<line class="st19" x1="56" y1="68" x2="81" y2="68"/>
	<line class="st19" x1="102" y1="68" x2="125" y2="68"/>
	<line class="st19" x1="165" y1="68" x2="176" y2="68"/>
</g>
<g id="NewInspect" class="st0">
	<polygon class="st14" points="140.5,11.8 144.3,21.5 154.3,18.5 149.1,27.5 157.8,33.4 147.4,35 148.2,45.5 140.5,38.4 132.8,45.5 
		133.6,35 123.2,33.4 131.9,27.5 126.7,18.5 136.7,21.5 	"/>
	<polyline class="st20" points="120.5,26.5 10.5,26.5 10.5,115 169.5,115 169.5,26.5 158.5,26.5 	"/>
</g>
<g id="Layer_7" class="st0">
	<path class="st19" d="M60.6,116H21.5c-2.5,0-4.5-2-4.5-4.5v-21c0-2.5,2-4.5,4.5-4.5h39.1c2.5,0,4.5,2,4.5,4.5v21
		C65.1,114,63.1,116,60.6,116z"/>
	<path class="st19" d="M39.2,4.9L16.8,39.2C16,40.4,16.9,42,18.3,42h44.8c1.4,0,2.3-1.6,1.5-2.8L42.2,4.9
		C41.5,3.8,39.9,3.8,39.2,4.9z"/>
	<g class="st1">
		<g>
			<path class="st2" d="M88,35.5c22,0,44,0,66,0c6.4,0,6.4-10,0-10c-22,0-44,0-66,0C81.6,25.5,81.6,35.5,88,35.5L88,35.5z"/>
		</g>
	</g>
	<g class="st1">
		<g>
			<path class="st2" d="M89,105.5c21.8,0,43.7,0,65.5,0c6.4,0,6.4-10,0-10c-21.8,0-43.7,0-65.5,0C82.6,95.5,82.6,105.5,89,105.5
				L89,105.5z"/>
		</g>
	</g>
	<g class="st1">
		<g>
			<path class="st2" d="M88,70.5c22,0,44,0,66,0c6.4,0,6.4-10,0-10c-22,0-44,0-66,0C81.6,60.5,81.6,70.5,88,70.5L88,70.5z"/>
		</g>
	</g>
	<ellipse class="st19" cx="41" cy="64" rx="24" ry="13"/>
	<g class="st1">
		<polygon class="st21" points="88.8,57.1 116.3,57.1 105.2,46 118.6,46 134.5,61.8 118.6,77.7 105.2,77.7 116.3,66.6 88.8,66.6 		
			"/>
	</g>
</g>
</svg>
