<?xml version="1.0" encoding="utf-8"?>
<!-- Generator: Adobe Illustrator 22.1.0, SVG Export Plug-In . SVG Version: 6.00 Build 0)  -->
<svg version="1.1" xmlns="http://www.w3.org/2000/svg" xmlns:xlink="http://www.w3.org/1999/xlink" x="0px" y="0px"
	 viewBox="0 0 60 60" style="enable-background:new 0 0 60 60;" xml:space="preserve">
<style type="text/css">
	.st0{display:none;}
	.st1{display:inline;}
	.st2{fill:#FFFFFF;}
	.st3{fill:none;stroke:#FFFFFF;stroke-width:5;stroke-miterlimit:10;}
	.st4{display:inline;fill:#FFFFFF;}
</style>
<g id="Maximize" class="st0">
	<g class="st1">
		<path class="st2" d="M57,27v30H13V27H57 M58.3,24H11.7c-0.9,0-1.7,0.8-1.7,1.7v32.6c0,0.9,0.8,1.7,1.7,1.7h46.6
			c0.9,0,1.7-0.8,1.7-1.7V25.7C60,24.8,59.2,24,58.3,24L58.3,24z"/>
	</g>
	<g class="st1">
		<path class="st2" d="M54,15v10H13h-2v2v23H3V15H54 M54.3,13H2.7C1.8,13,1,13.8,1,14.7v35.6C1,51.2,1.8,52,2.7,52H13V27h43V14.7
			C56,13.8,55.2,13,54.3,13L54.3,13z"/>
	</g>
</g>
<g id="Minimize">
	<g>
		<line class="st3" x1="3.5" y1="34.5" x2="55.5" y2="34.5"/>
	</g>
</g>
<g id="Close" class="st0">
	<polygon class="st4" points="54.2,9 43.3,9 30.2,23.4 17.6,9 6.9,9 24.7,29.5 4.2,52 15.2,52 30.1,35.6 44.3,52 55,52 35.5,29.6 	
		"/>
</g>
</svg>
