<?xml version="1.0" encoding="iso-8859-1"?>
<!-- Generator: Adobe Illustrator 18.0.0, SVG Export Plug-In . SVG Version: 6.00 Build 0)  -->
<!DOCTYPE svg PUBLIC "-//W3C//DTD SVG 1.1//EN" "http://www.w3.org/Graphics/SVG/1.1/DTD/svg11.dtd">
<svg version="1.1" id="Capa_1" xmlns="http://www.w3.org/2000/svg" xmlns:xlink="http://www.w3.org/1999/xlink" x="0px" y="0px"
	 viewBox="0 0 59.614 59.614" style="enable-background:new 0 0 59.614 59.614;" xml:space="preserve">
<path d="M49.732,32.279c2.193-7.31-0.211-13.966-5.222-21.926c0.691,0.155,1.401,0.261,2.14,0.261h0c3.52,0,6.988-1.749,9.051-4.563
	l0.591-0.807l-0.806-0.591c-1.531-1.122-3.41-1.715-5.435-1.715c-2.897,0-5.746,1.198-7.819,3.186C40.615,2.557,36.64,0,32.257,0
	c-0.54,0-1.079,0.041-1.602,0.122l-0.988,0.152l0.152,0.988c0.721,4.683,5.401,8.351,10.655,8.352h0
	c0.232,0,0.463-0.011,0.693-0.026c-0.458,8.792-7.033,16.638-13.594,19.154c-2.38-3.14-5.873-5.127-9.767-5.127h-2
	c-7.168,0-13,6.729-13,15c0,7.72,6.28,14,14,14c5.101,0,9.561-2.751,12.008-6.839c0.087,7.645,6.326,13.839,13.992,13.839
	c7.72,0,14-6.28,14-14C56.807,39.806,53.926,34.77,49.732,32.279z M6.754,36.014c0.273-1.354,0.77-2.627,1.476-3.785
	c0.288-0.472,0.904-0.619,1.375-0.333c0.471,0.288,0.62,0.903,0.333,1.375c-0.584,0.958-0.996,2.014-1.222,3.139
	c-0.096,0.475-0.513,0.802-0.979,0.802c-0.065,0-0.132-0.006-0.199-0.02C6.995,37.083,6.645,36.556,6.754,36.014z M15.739,47.604
	c-0.104,0.465-0.517,0.782-0.975,0.782c-0.072,0-0.146-0.008-0.219-0.024c-3.556-0.796-6.448-3.395-7.548-6.784
	c-0.17-0.525,0.117-1.089,0.643-1.26c0.527-0.169,1.09,0.118,1.26,0.643c0.869,2.678,3.257,4.817,6.082,5.449
	C15.52,46.53,15.86,47.065,15.739,47.604z M24.807,34.614c-3.309,0-6-2.691-6-6c0-0.552,0.448-1,1-1s1,0.448,1,1
	c0,2.206,1.794,4,4,4c0.552,0,1,0.448,1,1S25.359,34.614,24.807,34.614z M41.598,54.949c-0.104,0.466-0.518,0.782-0.975,0.782
	c-0.072,0-0.146-0.008-0.219-0.024c-3.556-0.796-6.448-3.396-7.548-6.785c-0.17-0.525,0.117-1.089,0.643-1.26
	c0.526-0.169,1.09,0.117,1.26,0.643c0.869,2.678,3.257,4.817,6.082,5.45C41.379,53.876,41.719,54.411,41.598,54.949z M41.807,30.614
	c-4.66,0-8.744,2.853-11.039,7.116c-0.136-2.68-0.895-5.164-2.094-7.287c6.658-2.724,13.051-10.083,14.301-18.776
	c5.12,8.231,6.619,13.954,4.961,19.735c-1.299-0.504-2.684-0.789-4.129-0.789H41.807z M48.807,41.614c-3.309,0-6-2.691-6-6
	c0-0.552,0.448-1,1-1s1,0.448,1,1c0,2.206,1.794,4,4,4c0.552,0,1,0.448,1,1S49.359,41.614,48.807,41.614z"/>
<g>
</g>
<g>
</g>
<g>
</g>
<g>
</g>
<g>
</g>
<g>
</g>
<g>
</g>
<g>
</g>
<g>
</g>
<g>
</g>
<g>
</g>
<g>
</g>
<g>
</g>
<g>
</g>
<g>
</g>
</svg>
